<svg width="67" height="67" xmlns="http://www.w3.org/2000/svg" xmlns:xlink="http://www.w3.org/1999/xlink" overflow="hidden"><defs><clipPath id="clip0"><rect x="1141" y="101" width="67" height="67"/></clipPath></defs><g clip-path="url(#clip0)" transform="translate(-1141 -101)"><path d="M1168.36 121.379C1168.92 120.821 1169.27 120.053 1169.27 119.216 1169.27 118.378 1168.92 117.61 1168.36 117.052L1158.73 107.491C1158.17 106.932 1157.4 106.583 1156.63 106.583 1155.87 106.583 1155.03 106.932 1154.47 107.491L1153.42 108.537 1167.31 122.426 1168.36 121.379Z" fill="#ECC87C"/><path d="M1182.39 146.016C1182.11 146.295 1181.69 146.434 1181.34 146.434 1180.99 146.434 1180.57 146.295 1180.29 146.016L1162.98 128.777C1162.71 128.498 1162.57 128.079 1162.57 127.73 1162.57 127.381 1162.71 126.963 1162.98 126.683L1165.15 124.59 1151.26 110.701C1150.35 111.608 1149.51 112.446 1148.96 113.004 1147.56 114.33 1146.72 116.075 1146.65 117.959 1146.44 121.1 1147.21 124.101 1148.26 127.032 1149.38 129.615 1150.84 132.057 1152.45 134.36 1158.17 142.945 1165.36 150.413 1173.73 156.345 1175.13 157.392 1176.59 158.299 1178.13 159.136 1181.62 160.881 1185.32 162.137 1189.3 162.417 1191.95 162.626 1194.6 161.579 1196.41 159.625L1198.3 157.741 1184.48 143.852 1182.39 146.016Z" fill="#ECC87C"/><path d="M1201.51 150.273 1191.88 140.642C1191.32 140.083 1190.55 139.734 1189.71 139.734 1188.88 139.734 1188.11 140.083 1187.55 140.642L1186.5 141.758 1200.39 155.647 1201.44 154.6C1202 154.042 1202.35 153.274 1202.35 152.436 1202.35 151.599 1202.07 150.831 1201.51 150.273Z" fill="#ECC87C"/></g></svg>