<svg width="220" height="114" xmlns="http://www.w3.org/2000/svg" xmlns:xlink="http://www.w3.org/1999/xlink" overflow="hidden"><defs><clipPath id="clip0"><rect x="3501" y="402" width="220" height="114"/></clipPath></defs><g clip-path="url(#clip0)" transform="translate(-3501 -402)"><path d="M3501 402C3512.6 402 3524.2 402 3535.8 402 3535.76 405.431 3535.81 408.859 3535.95 412.287 3537.28 430.842 3544.34 446.803 3557.12 460.172 3567.28 470.481 3579.44 477.359 3593.6 480.807 3593.59 456.457 3593.6 432.107 3593.63 407.755 3593.83 404.808 3595.35 402.94 3598.21 402.153 3598.51 402.091 3598.82 402.052 3599.12 402.03 3607.06 401.99 3615 401.99 3622.94 402.03 3625.32 402.254 3627 403.448 3628 405.612 3628.17 406.07 3628.29 406.54 3628.37 407.021 3628.4 420.758 3628.41 434.494 3628.4 448.232 3634.62 448.241 3640.83 448.232 3647.05 448.2 3658.23 447.664 3667.67 443.387 3675.37 435.372 3681.69 428.489 3685.27 420.365 3686.11 411.001 3686.21 409.084 3686.27 407.165 3686.3 405.245 3686.77 403.327 3687.98 402.257 3689.95 402.03 3699.07 401.99 3708.19 401.99 3717.32 402.03 3719.31 402.262 3720.52 403.353 3720.97 405.307 3721.39 424.652 3715.43 441.717 3703.11 456.498 3701.35 458.56 3699.48 460.53 3697.5 462.406 3709.28 472.161 3716.74 484.56 3719.86 499.606L3720.56 504.711 3720.75 504.55C3720.86 505.476 3720.93 506.416 3720.97 507.367 3721.01 509.163 3721.01 510.959 3720.97 512.755 3720.5 514.672 3719.28 515.743 3717.32 515.97 3708.19 516.011 3699.07 516.011 3689.95 515.97 3687.96 515.736 3686.74 514.644 3686.3 512.693 3686.6 506.884 3685.39 501.414 3682.68 496.283 3678.16 488.472 3671.47 483.645 3662.58 481.802 3661.66 481.64 3660.74 481.517 3659.82 481.435 3649.35 481.343 3638.87 481.313 3628.4 481.342L3628.4 482.95 3628.4 501.917 3628.4 501.917 3628.4 502.018 3628.4 503.525 3628.39 503.53 3628.37 510.979C3627.96 513.346 3626.62 514.928 3624.35 515.724 3623.89 515.862 3623.42 515.943 3622.94 515.97 3618.54 516.011 3614.14 516.011 3609.74 515.97 3583.99 515.447 3561.16 507.16 3541.26 491.109 3525.89 478.422 3514.71 462.735 3507.72 444.051L3501.05 406.9 3501 408.246 3501 406.638Z" fill="#ECC87C" fill-rule="evenodd"/></g></svg>